<?xml version="1.0" encoding="utf-8"?>
<!-- Generator: Adobe Illustrator 27.5.0, SVG Export Plug-In . SVG Version: 6.00 Build 0)  -->
<svg version="1.1" xmlns="http://www.w3.org/2000/svg" xmlns:xlink="http://www.w3.org/1999/xlink" x="0px" y="0px"
	 viewBox="0 0 500 500" style="enable-background:new 0 0 500 500;" xml:space="preserve">
<g id="BACKGROUND">
	<rect style="fill:#FEEFEC;" width="500" height="500"/>
</g>
<g id="OBJECTS">
	<g>
		<g style="opacity:0.4;">
			<path style="fill:#FDB0AD;" d="M499.999,255.558c0-6.483-0.001-12.982-0.003-19.524c-4.948,0-9.455,0-14.073,0
				c0-1.667,0-2.962,0-4.269c1.911-0.267,3.662-0.512,5.412-0.757c-0.025-0.329-0.05-0.659-0.075-0.988
				c-1.765-0.156-3.531-0.311-5.263-0.464c0-1.362,0-2.534,0-3.669c1.932-0.238,3.617-0.445,5.303-0.653
				c-0.023-0.313-0.047-0.626-0.07-0.938c-1.771-0.141-3.543-0.282-5.332-0.424c0-1.354,0-2.464,0-3.662
				c1.891-0.254,3.651-0.491,5.411-0.728c-0.03-0.31-0.06-0.621-0.09-0.931c-1.705-0.096-3.41-0.191-5.189-0.291
				c0-1.453,0-2.702,0-3.875c1.964-0.194,3.634-0.359,5.303-0.524c-0.018-0.355-0.035-0.711-0.053-1.066
				c-1.778-0.126-3.557-0.253-5.305-0.377c0-4.191,0-8.184,0-12.292c1.83-0.13,3.448-0.244,5.133-0.363c0-1.242,0-2.301,0-3.736
				c-5.769,0-11.315,0-17.113,0c0-2.526,0-4.674,0-6.98c-9.248,0-18.227,0-27.566,0c0,2.949,0,5.696,0,8.48
				c-1.995,0-3.627,0-5.545,0c0-7.4-0.337-14.675,0.121-21.9c0.293-4.628-1.043-7.444-5.489-8.73
				c-6.493-1.878-9.894-5.72-8.331-12.882c0.175-0.804-0.308-2.287-0.943-2.644c-3.574-2.011-7.288-3.774-11.52-5.906
				c0,3.933,0,7.178,0,10.764c-1.707-0.695-2.977-1.213-4.643-1.891c0,13.101,0,31.662,0,44.757l-24.255,0.212l-30.14,0.018
				c0,0,0,9.703,0,14.647c-2.06,0-3.741,0-5.564,0c-0.109-2.461-0.208-4.696-0.307-6.947c-1.149-0.186-2.027-0.329-2.584-0.419
				c-0.743-3.981-1.429-7.661-2.116-11.342c-0.312,0.035-0.624,0.07-0.937,0.105c0,3.762,0,7.525,0,11.59c-3.448,0-6.512,0-9.54,0
				c-0.203,1.422-0.361,2.521-0.57,3.985c-4.94,0-9.766,0-14.532,0c-0.205,1.273-0.347,2.156-0.5,3.111c-2.321,0-4.46,0-6.983,0
				c0-3.45,0-10.054,0-10.054s-0.004-4.238-4.219-4.492c0.804-5.816,0.533-6.518-3.435-8.374c1.071-2.69,2.482-8.391,2.482-8.391
				l0.168-0.883c0,0,0.007-3.481,0.007-5.587c-3.502,0-6.673,0-10.016,0c-0.117-2.371-0.217-4.394-0.335-6.786
				c-2.525,0-4.858,0-7.546,0c0-2.296,0-4.21,0-6.142c-1.558,0-2.742,0-4.28,0c0,2.128,0,4.044,0,6.238c-6.765,0-13.177,0-19.825,0
				c-0.104,2.293-0.196,4.319-0.294,6.489c-1.203,0-2.177,0-3.576,0c0-12.674,0-25.168,0-37.857c-6.529,0-26.447,0.198-26.447,0.198
				s-0.185-7.334-0.282-9.398c-1.361-0.153-2.445-0.275-3.71-0.418c0-5.294,0-10.369,0-15.443c-0.416,0-0.831,0-1.247,0
				c0,5.143,0,10.287,0,15.299c-1.524,0.316-2.392,0.496-3.268,0.678c0,0-0.28,2.632-0.404,3.805l-2.811-0.01l0.047-8.124
				l-6.317,0.085c0,4.447,0,8.763,0,13.365c-2.745,0-5.095,0-7.878,0c0,26.3,0,52.3,0,78.602c-4.762,0-9.086,0-13.738,0
				c0,10.223,0,20.144,0,30.172c-1.713,0-3.086,0-4.807,0c0-12.632,0-37.725,0-37.725s0-15.047,0-22.599v-17.101h-42.383
				l-0.007-0.262c0-6.464,0-12.636,0-18.858c-1.311-0.224-2.401-0.41-3.882-0.662c0-4.787,0-9.496,0-14.15
				c-11.186,0-21.954,0-33.142,0c0,4.885,0,9.593,0,14.71c-5.542,0-10.671,0-15.742,0h-8.722v39.607
				c-1.41-0.036-2.869,0.013-4.564,0.013c0-2.625,0-4.851,0-7.154c-3.336,0-6.301,0-9.62,0c0,3.222,0,6.283,0,9.673
				c-2.791,0-5.238,0-8.101,0c0,21.243,0,42.151,0,63.097c-3.088,0-5.746,0-8.862,0c0-25.25,0-50.317,0-75.67
				c-7.588,0-14.719,0-21.916,0c-0.228-1.236-0.407-2.204-0.588-3.183c-3.142,0-6.104,0-9.643,0
				c-0.39,3.631-1.086,10.578-1.086,10.578l-0.052,27.743c0,0-0.105,2.183-0.178,3.583c-4.445,0-8.546,0-12.975,0
				c0,14.819,0,29.31,0,44.158c-3.075,0-5.824,0-8.857,0c0,1.046,0,3.078,0,3.078v9.059c0,0,0,8.031,0,11.475v88.927l500-0.036
				V255.558H499.999z"/>
		</g>
		<g>
			<g>
				<path style="fill:#FCB663;" d="M441.067,101.226L441.067,101.226c-1.081,0-1.957-0.876-1.957-1.957l0,0
					c0-0.176-0.126-0.338-0.301-0.353c-0.196-0.017-0.361,0.137-0.361,0.33v0.023c0,1.081-0.876,1.957-1.957,1.957l0,0
					c-0.176,0-0.338,0.126-0.353,0.301c-0.017,0.196,0.137,0.361,0.33,0.361h0.023c1.081,0,1.957,0.876,1.957,1.957v0
					c0,0.176,0.126,0.338,0.301,0.353c0.196,0.017,0.361-0.137,0.361-0.33v-0.024c0-1.081,0.876-1.957,1.957-1.957h0.023
					c0.193,0,0.347-0.164,0.33-0.361C441.405,101.352,441.243,101.226,441.067,101.226z"/>
			</g>
			<g>
				<path style="fill:#FCB663;" d="M55.052,160.874L55.052,160.874c-1.081,0-1.957-0.876-1.957-1.957l0,0
					c0-0.176-0.126-0.338-0.301-0.353c-0.196-0.017-0.361,0.137-0.361,0.33v0.023c0,1.081-0.876,1.957-1.957,1.957h0
					c-0.176,0-0.338,0.126-0.353,0.301c-0.017,0.196,0.137,0.361,0.33,0.361h0.023c1.081,0,1.957,0.876,1.957,1.957v0
					c0,0.176,0.126,0.338,0.301,0.353c0.196,0.017,0.361-0.137,0.361-0.33v-0.024c0-1.081,0.876-1.957,1.957-1.957h0.023
					c0.193,0,0.347-0.164,0.33-0.361C55.39,161,55.228,160.874,55.052,160.874z"/>
			</g>
			<g>
				<path style="fill:#FCB663;" d="M129.305,74.51L129.305,74.51c-1.081,0-1.957-0.876-1.957-1.957v0
					c0-0.176-0.126-0.338-0.301-0.353c-0.196-0.017-0.361,0.137-0.361,0.33v0.023c0,1.081-0.876,1.957-1.957,1.957l0,0
					c-0.176,0-0.338,0.126-0.353,0.301c-0.017,0.196,0.137,0.361,0.33,0.361h0.023c1.081,0,1.957,0.876,1.957,1.957v0
					c0,0.176,0.126,0.338,0.301,0.353c0.196,0.017,0.361-0.137,0.361-0.33v-0.024c0-1.081,0.876-1.957,1.957-1.957h0.023
					c0.193,0,0.347-0.164,0.33-0.361C129.643,74.636,129.481,74.51,129.305,74.51z"/>
			</g>
			<g>
				<path style="fill:#FCB663;" d="M176.486,136.094L176.486,136.094c-1.081,0-1.957-0.876-1.957-1.957v0
					c0-0.176-0.126-0.338-0.301-0.353c-0.196-0.017-0.361,0.137-0.361,0.33v0.023c0,1.081-0.876,1.957-1.957,1.957l0,0
					c-0.176,0-0.338,0.126-0.353,0.301c-0.017,0.196,0.137,0.361,0.33,0.361h0.023c1.081,0,1.957,0.876,1.957,1.957v0
					c0,0.176,0.126,0.338,0.301,0.353c0.196,0.017,0.361-0.137,0.361-0.33v-0.024c0-1.081,0.876-1.957,1.957-1.957h0.023
					c0.193,0,0.347-0.164,0.33-0.361C176.824,136.22,176.662,136.094,176.486,136.094z"/>
			</g>
			<g>
				<path style="fill:#FCB663;" d="M44.47,31.368L44.47,31.368c-1.081,0-1.957-0.876-1.957-1.957v0c0-0.176-0.126-0.338-0.301-0.353
					c-0.196-0.017-0.361,0.137-0.361,0.33v0.023c0,1.081-0.876,1.957-1.957,1.957h0c-0.176,0-0.338,0.126-0.353,0.301
					c-0.017,0.196,0.137,0.361,0.33,0.361h0.023c1.081,0,1.957,0.876,1.957,1.957v0c0,0.176,0.126,0.338,0.301,0.353
					c0.196,0.017,0.361-0.137,0.361-0.33v-0.024c0-1.081,0.876-1.957,1.957-1.957h0.023c0.193,0,0.347-0.164,0.33-0.361
					C44.808,31.494,44.646,31.368,44.47,31.368z"/>
			</g>
			<g>
				<path style="fill:#FCB663;" d="M385.507,13.879L385.507,13.879c-1.081,0-1.957-0.876-1.957-1.957v0
					c0-0.176-0.126-0.338-0.301-0.353c-0.196-0.017-0.361,0.137-0.361,0.33v0.023c0,1.081-0.876,1.957-1.957,1.957l0,0
					c-0.176,0-0.338,0.126-0.353,0.301c-0.017,0.196,0.137,0.361,0.33,0.361h0.023c1.081,0,1.957,0.876,1.957,1.957v0
					c0,0.176,0.126,0.338,0.301,0.353c0.196,0.017,0.361-0.137,0.361-0.33v-0.024c0-1.081,0.876-1.957,1.957-1.957h0.023
					c0.193,0,0.347-0.164,0.33-0.361C385.845,14.005,385.683,13.879,385.507,13.879z"/>
			</g>
			<circle style="fill:#FCB663;" cx="9.656" cy="185.524" r="0.926"/>
			<circle style="fill:#FCB663;" cx="176.841" cy="14.21" r="0.926"/>
			<circle style="fill:#FCB663;" cx="482.902" cy="168.47" r="0.926"/>
			<circle style="fill:#FCB663;" cx="459.341" cy="31.699" r="0.926"/>
			<circle style="fill:#FCB663;" cx="67.823" cy="74.841" r="0.926"/>
			<circle style="fill:#FCB663;" cx="406.115" cy="75.767" r="0.926"/>
		</g>
	</g>
	<g>
		<g>
			<path style="fill:#FFFFFF;" d="M342.467,395.347H207.309c-12.777,0-23.135-10.358-23.135-23.135V46.575
				c0-12.777,10.358-23.135,23.135-23.135h135.159c12.777,0,23.135,10.358,23.135,23.135v325.636
				C365.603,384.989,355.245,395.347,342.467,395.347z"/>
		</g>
		<g>
			<rect x="193.333" y="64.124" style="fill:#EBC9CF;" width="164.684" height="292.983"/>
		</g>
		<g>
			<g>
				<circle style="fill:#33344E;" cx="274.921" cy="33.759" r="2.06"/>
			</g>
			<g>
				<circle style="fill:#33344E;" cx="256.189" cy="44.362" r="2.06"/>
			</g>
			<g>
				<path style="fill:#33344E;" d="M294.928,45.428h-30.471c-0.59,0-1.068-0.478-1.068-1.067s0.478-1.067,1.068-1.067h30.471
					c0.59,0,1.068,0.478,1.068,1.067S295.517,45.428,294.928,45.428z"/>
			</g>
			<g>
				<circle style="fill:#EBC9CF;" cx="274.512" cy="376.697" r="12.085"/>
			</g>
			<g>
				<path style="fill:#33344E;" d="M274.512,364.612c6.675,0,12.085,5.411,12.085,12.086c0,6.675-5.411,12.085-12.085,12.085
					s-12.085-5.411-12.085-12.085C262.426,370.022,267.837,364.612,274.512,364.612 M274.512,362.827
					c-7.648,0-13.87,6.222-13.87,13.87c0,7.648,6.222,13.87,13.87,13.87s13.87-6.222,13.87-13.87
					C288.382,369.049,282.16,362.827,274.512,362.827L274.512,362.827z"/>
			</g>
		</g>
		<g style="opacity:0.2;">
			<g>
				<rect x="204.487" y="84.95" style="fill:#863D50;" width="69.48" height="58.584"/>
			</g>
			<g>
				<rect x="279.466" y="84.95" style="fill:#863D50;" width="69.48" height="58.584"/>
			</g>
			<g style="opacity:0.5;">
				<rect x="204.487" y="147.921" style="fill:#863D50;" width="69.48" height="58.584"/>
			</g>
			<g style="opacity:0.5;">
				<rect x="279.466" y="147.921" style="fill:#863D50;" width="69.48" height="58.584"/>
			</g>
			<g style="opacity:0.5;">
				<rect x="204.487" y="210.893" style="fill:#863D50;" width="69.48" height="58.584"/>
			</g>
			<g>
				<rect x="279.466" y="210.893" style="fill:#863D50;" width="69.48" height="58.584"/>
			</g>
			<g>
				<rect x="204.487" y="273.864" style="fill:#863D50;" width="69.48" height="58.584"/>
			</g>
			<g style="opacity:0.5;">
				<rect x="279.466" y="273.864" style="fill:#863D50;" width="69.48" height="58.584"/>
			</g>
		</g>
	</g>
	<g>
		<path style="fill:#EBC9CF;" d="M383.349,448.287c-1.357,0-2.702,0.01-4.04,0.025c-8.917-3.881-29.829-6.605-54.206-6.605
			c-32.48,0-58.81,4.836-58.81,10.8c0,5.234,20.277,9.598,47.19,10.589c1.761,7.486,32.365,13.447,69.866,13.447
			c38.633,0,69.951-6.325,69.951-14.128C453.301,454.613,421.982,448.287,383.349,448.287z"/>
		<g>
			<g>
				<path style="fill:#E7816D;" d="M431.244,251.188c-1.485-1.069-2.97-1.652-4.455-3.38c-1.067-1.242-4.189-3.125-5.796-4.659
					c-0.697,1.615-2.553,5.83-3.961,8.252c-1.768,3.041-3.843,4.968-3.843,4.968s-0.046,3.093,0.307,6.487
					c0.354,3.394,0.919,4.95,0.919,4.95s6.859-4.455,10.677-8.627c2.878-3.145,5.474-6.337,6.579-7.719
					C431.532,251.382,431.39,251.294,431.244,251.188z"/>
			</g>
			<g>
				<path style="fill:#101E39;" d="M421.275,242.492l10.96,8.259l-1.804,2.243c0,0-4.971-4.731-6.782-6.243
					c-1.811-1.512-2.957-2.907-2.957-2.907L421.275,242.492z"/>
			</g>
			<g>
				<path style="fill:#33344E;" d="M409.729,121.808c-0.621-6.209-4.036-8.382-5.174-10.037c-1.138-1.656-5.691-3.621-6.726-4.139
					c-1.035-0.517-1.331-2.594-3.114-3.284c-1.783-0.69-3.383,0.989-4.706,0.701c-1.323-0.288-1.909-2.818-3.922-3.164
					c-2.013-0.345-3.509,2.071-3.509,2.071s-5.062-3.404-6.155-2.104c-1.093,1.299,0,2.565,0,2.565s-0.863-0.115-1.438,1.323
					c-0.575,1.438,0,4.429,0,4.429s-1.392-0.046-1.622,0.874c-0.175,0.701,0.416,3.094,0.708,5.035
					c0.092,0.608,0.155,1.173,0.155,1.626c0,1.898,1.388,6.485,3.218,8.036c2.229,1.89,4.716,4.21,4.283,6.762
					c-0.485,2.858-1.166,6.651,1.201,9.795c2.433,3.23,6.829,6.415,10.762,6.415c2.317,0,3.915-0.145,5.663-1.491
					c1.219-0.938,2.509-2.459,4.167-4.925C407.556,136.295,410.35,128.017,409.729,121.808z"/>
			</g>
			<g>
				<path style="fill:#E7816D;" d="M321.835,149.455c0.018-0.769,0.046-1.914,0.086-3.629c0.124-5.188,0.165-12.64,0.165-17.375
					c0-4.735-1.194-6.711-2.347-8.811c-1.153-2.1-5.311-10.705-7.329-15.316c-2.017-4.611-3.5-5.805-4.447-5.311
					c-0.947,0.494-0.453,2.059,0.494,5.352c0.947,3.294,3.788,11.693,3.788,11.693s-2.512,0-3.541,1.029
					c-1.029,1.029-0.247,2.265-0.906,2.8c-0.659,0.535-1.318-0.535-2.635,0.288c-1.318,0.823-0.535,2.1-1.194,2.8
					c-0.659,0.7-1.359-0.082-2.347,1.112c-0.988,1.194-0.307,3.42,0.799,6.582c1.107,3.163,3.795,5.218,4.507,5.851
					c0.712,0.633,0.949,0.158,1.107,3.874c0.105,2.472-0.559,7.042-1.016,9.825c1.447-1.297,3.3-2.27,5.615-2.559
					C317.18,147.092,320.18,147.674,321.835,149.455z"/>
			</g>
			<g>
				<path style="fill:#E7816D;" d="M379.294,155.879c2.721-1.256,9.523-3.872,16.221-4.5c1.537-0.144,2.79-0.193,3.838-0.149v-4.009
					c-1.748,1.346-3.346,1.491-5.663,1.491c-3.932,0-8.329-3.185-10.762-6.415c-2.368-3.144-1.687-6.937-1.201-9.795
					c0.433-2.551-2.054-4.871-4.283-6.762c-1.829-1.551-3.218-6.138-3.218-8.036c0-0.453-0.063-1.018-0.155-1.626
					c-1.402,4.097-5.5,16.837-4.446,22.893c1.265,7.274,3.083,9.329,4.902,9.329s2.925-0.158,3.163,2.53
					c0.15,1.695,0.362,4.271,0.499,5.942C378.458,156.412,378.811,156.102,379.294,155.879z"/>
			</g>
			<g>
				<path style="fill:#FCB663;" d="M441.143,212.914c-0.419-4.814-1.047-14.337-1.57-17.895s-1.151-6.279-1.779-12.977
					c-0.628-6.698-3.872-9.837-7.326-11.512s-11.302-6.698-16.744-9.105c-5.442-2.407-5.965-3.454-8.058-6.488
					c-1.613-2.339-2.793-3.557-6.313-3.707c-1.048-0.045-2.301,0.005-3.838,0.149c-6.698,0.628-13.5,3.244-16.221,4.5
					c-0.483,0.223-0.837,0.533-1.105,0.893c-1.244,1.668-0.587,4.471-1.682,5.355c-1.551,1.253-7.279-1.372-11.543,0.128
					c-2.478,0.872-5.809,4.824-5.809,4.824s-1.264-0.541-2.457,0.354c-2.487,1.865-8.963,2.816-16.248,3.112
					c-7.285,0.295-13.508-1.89-13.508-1.89s0.414-0.414,0.512-1.497c0.098-1.083-0.984-5.198-1.575-7.167
					c-0.591-1.969-1.575-2.461-1.575-3.446c0-0.985-0.216-1.503-1.263-4.933c-0.26-0.852-0.66-1.57-1.207-2.158
					c-1.654-1.781-4.655-2.363-9.2-1.795c-2.315,0.289-4.168,1.262-5.615,2.559c-2.332,2.091-3.605,5.028-4.035,7.324
					c-0.698,3.721,1.163,7.034,1.163,7.034s0,0,0.116,2.384c0.116,2.384,1.168,6.721,1.076,10.966s0.738,4.337,2.307,7.844
					c1.569,3.507,1.753,3.783,9.597,8.213c7.844,4.429,21.963,5.629,25.285,5.721c3.322,0.092,11.166,0.277,12.919,1.292
					c1.753,1.015,4.208,1.158,4.208,1.158s0.121,0.966,0.483,3.623c0.362,2.657,0.362,7.125-0.121,12.56s-6.631,38.304-6.631,38.304
					s0.254,0.335,0.989,0.719c0.412,0.215,0.974,0.446,1.732,0.641c2.109,0.544,7.62,0.136,12.451,0
					c4.83-0.136,15.104-0.34,24.765-1.293c1.913-0.189,3.846-0.315,5.718-0.398c7.583-0.335,14.148,0.058,14.148,0.058
					s0.952-9.661,1.429-13.131c0.476-3.47,0.544-6.259,2.653-9.593c2.109-3.334,6.94-13.811,6.94-13.811s0.204,1.089,0.34,2.517
					c0.136,1.429,0.136,3.198,0.136,5.511c0,2.313-0.749,7.23-0.987,8.299c-0.238,1.069-0.475,2.079-1.485,2.613
					c-1.01,0.535-2.019,1.247-2.198,2.792c-0.05,0.434,0.346,0.982,0.975,1.583c1.606,1.534,4.728,3.417,5.796,4.659
					c1.485,1.728,2.97,2.311,4.455,3.38c0.147,0.106,0.288,0.194,0.429,0.272c1.278,0.715,2.348,0.225,4.382-2.826
					c2.257-3.385,1.112-4.638,1.112-4.638s4.081-7.744,5.651-13.709C444.388,224.321,441.562,217.728,441.143,212.914z"/>
			</g>
			<g>
				<path style="fill:#E9785F;" d="M346.038,451.604c-7.309-2.113-10.792-8.557-10.792-8.557s-4.657,2.07-10.479,1.164
					c-5.822-0.906-8.668,3.234-7.892,6.986c0.776,3.752,4.916,9.056,12.42,10.608c7.504,1.552,9.185,1.552,9.185,1.552
					s-0.388,2.717,2.587,3.752c2.976,1.035,14.101,2.07,16.042-1.811c1.941-3.881,0.647-14.878,0.647-14.878
					S353.346,453.717,346.038,451.604z"/>
			</g>
			<g>
				<path style="fill:#33344E;" d="M418.189,358.811c-2.311-6.741-3.082-14.734-3.082-19.453c0-4.719,1.83-26.194,3.467-32.165
					c1.637-5.971,3.274-16.275,0.385-24.461c-2.889-8.186-4.543-14.925-4.543-14.925s-0.566-1.556-0.919-4.95
					c-0.354-3.394-0.307-6.487-0.307-6.487l-14.148-0.058c-1.872,0.083-3.805,0.209-5.718,0.398
					c-9.661,0.952-19.934,1.157-24.765,1.293c-4.831,0.136-10.341,0.544-12.451,0c-0.758-0.196-1.32-0.426-1.732-0.641
					c0,1.32,0,3.399,0,4.707c0,2.032-3.204,6.954-4.376,12.111c-1.172,5.157-3.721,14.415-4.84,20.316
					c-1.119,5.901-5.901,17.702-7.122,23.603c-1.221,5.901-3.052,17.193-3.052,24.01s-1.729,9.563-1.831,14.548
					s-1.424,22.585,0,28.588c1.424,6.002,1.628,13.633,0.712,20.856c-0.916,7.223-1.017,14.752-0.102,17.397
					c0.916,2.645,2.136,3.052,1.729,5.494c-0.407,2.442-3.449,9.461-2.996,10.886c0.453,1.424,2.747,3.172,2.747,3.172
					s3.484,6.444,10.792,8.557c7.309,2.113,11.718-1.183,11.718-1.183s1.341-0.881,1.036-4.035
					c-0.305-3.154,0.203-6.308,1.424-7.935s1.119-4.273-0.712-7.122s-2.035-10.174-2.136-14.65
					c-0.102-4.476,0.909-16.176,0.811-19.737c-0.099-3.561-1.625-10.581-1.319-14.446c0.305-3.866,1.017-7.935,0.509-10.377
					s-0.814-5.697-0.203-9.36c0.61-3.663,1.221-10.886,2.238-13.022c1.017-2.136,2.34-3.968,2.442-7.325
					c0.102-3.357,6.206-13.938,9.767-19.228c3.561-5.29,7.02-10.581,10.174-13.633c3.154-3.052,3.154-3.052,3.154-3.052
					s4.273,15.362,5.595,21.771c1.323,6.409,2.616,26.11,1.749,32.755c-0.867,6.645,1.156,13.386,2.6,20.609
					c1.445,7.223,0.578,14.927-2.504,25.039c-3.082,10.112-2.311,16.083-2.311,16.083s-1.926,0.385-1.156,5.393
					c0.77,5.008,0.963,7.126-0.674,11.267c-1.637,4.141-1.781,6.258,0.361,10.592c3.57,1.728,6.632-0.656,10.494-1.53
					s6.121,1.53,6.121,1.53s3.825,1.349,5.751,0.482c1.926-0.867,2.504-3.815,1.83-7.445s-0.674-3.63-0.674-3.63
					s1.637-3.178,1.445-7.415c-0.193-4.237,0.867-10.497,2.889-14.927c2.022-4.43,3.756-22.92,2.889-31.973
					S420.5,365.552,418.189,358.811z"/>
			</g>
			<g>
				<path style="fill:#E9785F;" d="M399.093,448.479c-3.862,0.874-6.923,3.258-10.494,1.53c0,0-2.696,1.166-4.227,1.895
					c-1.53,0.729-1.822,3.206-1.239,5.101c0.583,1.895,3.644,5.393,6.777,7.142c3.134,1.749,3.206,2.623,3.498,4.81
					s1.603,4.154,3.717,4.737c2.113,0.583,9.765,0.364,10.785-2.186c1.02-2.551,1.166-6.923,0-10.931
					c-1.166-4.008-2.696-10.567-2.696-10.567S402.956,447.604,399.093,448.479z"/>
			</g>
			<g>
				<g>
					<path style="fill:#E5E5E5;" d="M354.082,268.182l14.582,1.148c4.854,0.331,9.727,0.845,14.558,0.742
						c4.849-0.113,9.704-0.613,14.553-1.061l7.278-0.71c2.426-0.233,4.875-0.376,7.303-0.495c-4.854,0.522-9.664,1.252-14.512,1.838
						c-4.845,0.58-9.702,1.075-14.602,1.255c-2.462,0.061-4.908-0.123-7.342-0.289c-2.435-0.184-4.867-0.383-7.292-0.649
						C363.754,269.458,358.91,268.882,354.082,268.182z"/>
				</g>
				<g>
					<path style="fill:#E5E5E5;" d="M401.969,257.126l-0.001-0.015l-0.001-0.008c-0.012-0.115-0.115-0.198-0.229-0.185
						c-1.345,0.142-2.659,0.309-3.88,0.455c1.291-0.011,2.497-0.006,3.676-0.019c0.005,1.932-0.013,3.864,0.05,5.793
						c0.021,0.997,0.057,2.008,0.035,2.982c-0.002,0.467-0.091,1.009-0.22,1.043c-0.203,0.125-0.812,0.135-1.29,0.184
						c-0.507,0.04-1.059,0.156-1.268,0.033c-0.195-0.073-0.317-0.583-0.35-1.044c-0.053-0.966-0.092-1.951-0.17-2.924
						c-0.123-1.955-0.296-3.951-0.463-6.049c-0.046,1.904-0.097,3.909-0.099,5.955c0,0.005,0,0.01,0,0.015
						c-0.677-0.2-1.346-0.24-2.014-0.221c-0.655,0.039-1.307,0.133-1.954,0.379c-0.003-0.067-0.004-0.135-0.007-0.202
						c-0.061-1.985-0.255-3.961-0.419-5.938l-0.001-0.018l-0.006-0.034c-0.028-0.106-0.137-0.169-0.243-0.14l-3.424,0.916
						l3.261-0.472l0.095,5.707c0.016,0.987,0.027,1.976,0,2.952c-0.013,0.238-0.015,0.49-0.042,0.715
						c-0.024,0.299-0.034,0.264-0.138,0.393c-0.219,0.214-0.713,0.327-1.148,0.375c-0.451,0.048-0.929,0.03-1.355-0.058
						c-0.197-0.042-0.436-0.134-0.395-0.168c0.003,0.032-0.031-0.133-0.046-0.226c-0.024-0.101-0.031-0.225-0.043-0.342
						c-0.076-0.953-0.103-1.948-0.125-2.933l-0.065-5.942c-0.25,1.971-0.421,3.948-0.51,5.934c-0.004,0.094-0.006,0.189-0.01,0.283
						c-2.766,0.034-5.523,0.147-8.279,0.276c-2.847,0.117-5.707,0.377-8.537,0.466c-2.83,0.128-5.67-0.049-8.502-0.283
						c-2.832-0.259-5.658-0.634-8.474-1.125c2.742,0.824,5.563,1.361,8.403,1.755c2.844,0.372,5.719,0.54,8.598,0.479
						c1.445-0.053,2.86-0.192,4.286-0.298c1.424-0.12,2.849-0.208,4.27-0.359c2.748-0.258,5.494-0.531,8.232-0.884
						c-0.039,0.891-0.078,1.78-0.009,2.697c0.011,0.129,0.014,0.253,0.041,0.395c0.035,0.149,0.007,0.239,0.135,0.49
						c0.09,0.234,0.308,0.312,0.435,0.381c0.149,0.07,0.282,0.105,0.42,0.141c0.541,0.123,1.065,0.15,1.599,0.107
						c0.53-0.068,1.081-0.107,1.625-0.549c0.13-0.101,0.26-0.275,0.325-0.46c0.076-0.223,0.069-0.343,0.08-0.472
						c0.024-0.268,0.019-0.512,0.028-0.769c0.005-0.858-0.02-1.705-0.051-2.553c0.665,0.19,1.324,0.229,1.981,0.212
						c0.663-0.038,1.323-0.134,1.977-0.388c0.001,0.948-0.034,1.89,0.016,2.844c0.018,0.261,0.049,0.529,0.123,0.812
						c0.071,0.271,0.23,0.63,0.582,0.832c0.348,0.182,0.672,0.166,0.946,0.152l0.747-0.062l0.753-0.048
						c0.263-0.033,0.544-0.023,0.901-0.222c0.376-0.227,0.504-0.644,0.542-0.912c0.043-0.287,0.052-0.551,0.056-0.811
						c0-1.028-0.058-2.017-0.1-3.02C402.255,261.124,402.097,259.125,401.969,257.126z"/>
					<path style="fill:#E5E5E5;" d="M407.163,262.107c-1.617,0.154-3.228,0.371-4.818,0.84c1.647,0.183,3.271,0.115,4.89-0.016
						c1.617-0.156,3.228-0.373,4.818-0.84C410.407,261.909,408.782,261.977,407.163,262.107z"/>
				</g>
				<g>
					<path style="fill:#E5E5E5;" d="M395.755,281.846c0.039,2.262-0.104,4.521-0.35,6.772c-0.25,2.251-0.653,4.489-1.247,6.697
						c-0.36,1.088-0.71,2.185-1.295,3.207c-0.128,0.262-0.277,0.515-0.467,0.752c-0.18,0.232-0.345,0.504-0.54,0.7
						c-0.373,0.426-0.763,0.837-1.161,1.241c-1.581,1.621-3.235,3.176-5.049,4.53c0.791-0.808,1.578-1.611,2.329-2.451
						c0.769-0.82,1.522-1.655,2.251-2.509l1.091-1.282c0.199-0.21,0.315-0.434,0.476-0.649c0.162-0.207,0.293-0.442,0.407-0.691
						c0.519-0.95,0.837-2.025,1.163-3.079c0.643-2.13,1.031-4.343,1.413-6.554C395.152,286.316,395.453,284.085,395.755,281.846z"/>
				</g>
				<g>
					<path style="fill:#E5E5E5;" d="M357.549,278.077l14.04,0.458c2.376,0.108,4.69,0.166,7.032,0.076
						c2.334-0.078,4.674-0.234,6.99-0.479c0.183-0.019,0.346,0.113,0.366,0.296c0.003,0.027,0.002,0.057-0.002,0.082
						c-0.412,3.033-0.895,6.053-1.404,9.071c-0.529,3.017-1.045,6.029-1.85,9.02c-0.226,0.73-0.449,1.542-0.942,2.215
						c-0.463,0.649-0.962,1.243-1.478,1.819c-1.028,1.154-2.119,2.233-3.221,3.299c-2.207,2.13-4.471,4.187-6.775,6.208
						c-0.121,0.107-0.294,0.121-0.429,0.049c-2.865-1.558-5.698-3.161-8.472-4.886c-1.379-0.865-2.757-1.778-4.008-2.855
						c-1.24-1.083-2.451-2.171-3.423-3.591c-0.035-0.051-0.046-0.111-0.036-0.167l0.002-0.01l1.8-10.364L357.549,278.077z
						 M357.549,278.077l-1.531,10.402l-1.541,10.281l-0.035-0.176c0.891,1.255,2.133,2.362,3.357,3.386
						c1.232,1.03,2.597,1.885,3.976,2.74c2.76,1.695,5.601,3.281,8.458,4.814l-0.428,0.049c2.279-2.023,4.529-4.091,6.709-6.219
						c1.089-1.065,2.162-2.146,3.179-3.264c0.507-0.559,0.994-1.135,1.423-1.727c0.425-0.568,0.616-1.259,0.845-1.98
						c0.801-2.909,1.339-5.929,1.882-8.927c0.534-3.005,1.002-6.024,1.474-9.039l0.364,0.378c-2.35,0.208-4.695,0.324-7.047,0.362
						c-2.346,0.05-4.721-0.049-7.026-0.198L357.549,278.077z"/>
				</g>
				<path style="fill:#E5E5E5;" d="M413.22,308.436c-1.898-1.976-3.805-3.945-5.655-5.961c-0.935-1.026-1.896-2.036-2.765-3.097
					c-0.22-0.264-0.426-0.532-0.602-0.799c-0.048-0.134-0.099-0.264-0.155-0.393c-0.049-0.14-0.07-0.318-0.107-0.475
					c-0.077-0.318-0.117-0.657-0.155-0.997c-0.045-0.337-0.081-0.677-0.1-1.023c-0.189-2.75-0.206-5.536-0.21-8.314
					c-0.002-1.65,0.029-3.3,0.065-4.951c1.014,0.207,2.052,0.281,3.081,0.291c1.152,0.019,2.301-0.048,3.444-0.147
					c2.284-0.223,4.553-0.581,6.767-1.237c-2.307,0.012-4.575,0.218-6.843,0.413l-3.395,0.325c-1.014,0.086-2.026,0.196-3.052,0.257
					c0.022-1.007,0.044-2.015,0.063-3.022c4.155-0.371,8.308-0.758,12.456-1.229c-4.267,0.146-8.527,0.38-12.787,0.629
					c-0.154,0.009-0.28,0.131-0.29,0.289l-0.001,0.011c-0.175,2.786-0.229,5.573-0.279,8.364c-0.036,2.791-0.053,5.583,0.198,8.388
					c0.024,0.35,0.064,0.702,0.115,1.055c0.043,0.352,0.089,0.704,0.179,1.063c0.045,0.181,0.066,0.353,0.131,0.54l0.245,0.571
					c0.209,0.31,0.434,0.592,0.662,0.861c0.915,1.079,1.869,2.094,2.848,3.091c1.966,1.982,3.951,3.937,5.985,5.846l0.007,0.007
					c0.056,0.053,0.143,0.062,0.21,0.018c1.555-1.02,3.119-2.024,4.661-3.063C416.357,306.625,414.792,307.537,413.22,308.436z"/>
				<g>
					<path style="fill:#E5E5E5;" d="M358.279,350.079c-0.338,0.72-0.915,1.22-1.547,1.61c-0.641,0.369-1.382,0.633-2.172,0.541
						c0.583-0.531,1.154-0.886,1.751-1.253C356.918,350.632,357.524,350.299,358.279,350.079z"/>
				</g>
				<g>
					<path style="fill:#E5E5E5;" d="M336.68,428.902c0.64,0.66,1.345,1.209,2.074,1.696c0.737,0.472,1.504,0.891,2.325,1.168
						c0.815,0.284,1.658,0.516,2.534,0.607c0.873,0.123,1.765,0.136,2.69,0.159c-0.434,0.145-0.882,0.266-1.337,0.365
						c-0.459,0.051-0.924,0.149-1.393,0.12c-0.942,0.036-1.882-0.176-2.778-0.475C339.023,431.89,337.448,430.594,336.68,428.902z"
						/>
				</g>
				<g>
					<path style="fill:#E5E5E5;" d="M390.48,424.364c0.528,0.648,0.838,1.343,1.117,2.049c0.262,0.718,0.474,1.422,0.577,2.247
						c-0.677-0.507-1.063-1.232-1.35-1.955C390.561,425.968,390.384,425.197,390.48,424.364z"/>
				</g>
				<g>
					<path style="fill:#E5E5E5;" d="M411.237,440.582c0.068,0.555-0.099,0.994-0.329,1.395c-0.25,0.383-0.578,0.753-1.123,0.904
						c0.028-0.553,0.192-0.949,0.419-1.338C410.448,441.172,410.735,440.824,411.237,440.582z"/>
				</g>
				<g>
					<path style="fill:#E5E5E5;" d="M389.814,448.752c1.486-1.028,3.154-1.775,4.885-2.337c1.735-0.55,3.576-0.835,5.429-0.746
						c0.461,0.05,0.924,0.091,1.38,0.176c0.448,0.109,0.924,0.186,1.343,0.328c0.857,0.269,1.721,0.516,2.572,0.806
						c1.709,0.554,3.414,1.12,5.089,1.774c-1.776-0.325-3.522-0.737-5.264-1.162c-0.875-0.199-1.737-0.442-2.605-0.662
						c-0.438-0.129-0.851-0.19-1.275-0.287c-0.425-0.074-0.859-0.103-1.289-0.147c-1.735-0.102-3.487,0.142-5.209,0.532
						C393.151,447.447,391.46,448.026,389.814,448.752z"/>
				</g>
				<g>
					<path style="fill:#E5E5E5;" d="M334.199,436.286c1.157,2.272,2.591,4.381,4.242,6.276c1.681,1.858,3.605,3.524,5.857,4.569
						c2.224,1.063,4.766,1.459,7.249,1.494c1.244-0.005,2.49-0.196,3.654-0.634c1.156-0.437,2.254-1.147,2.977-2.204
						c-0.566,1.163-1.662,1.995-2.818,2.577c-1.191,0.539-2.491,0.813-3.79,0.897c-1.299,0.067-2.607-0.022-3.878-0.258
						c-1.282-0.198-2.549-0.604-3.749-1.125c-2.351-1.168-4.363-2.907-5.988-4.908c-0.791-1.021-1.52-2.083-2.163-3.195
						C335.185,438.646,334.609,437.497,334.199,436.286z"/>
				</g>
			</g>
			<g>
				<g>
					<path style="fill:#E5E5E5;" d="M373.802,237.008c1.725,0.998,3.466,1.945,5.235,2.83c1.776,0.872,3.565,1.708,5.391,2.454
						c1.814,0.777,3.684,1.405,5.563,2.004c0.943,0.291,1.894,0.56,2.86,0.77c0.953,0.287,1.937,0.398,2.911,0.637
						c-1.991-0.062-3.99-0.314-5.937-0.792c-1.949-0.463-3.864-1.083-5.712-1.854c-1.846-0.776-3.654-1.645-5.377-2.661
						C377.013,239.384,375.335,238.288,373.802,237.008z"/>
				</g>
				<g>
					<path style="fill:#E5E5E5;" d="M423.649,239.181c1.996,0.159,3.961,0.64,5.82,1.445c0.938,0.399,1.811,0.948,2.624,1.516
						c0.821,0.587,1.617,1.17,2.31,1.989l-0.167-0.078c0.633,0.067,1.267,0.118,1.9,0.218c-0.633,0.099-1.267,0.15-1.9,0.218
						c-0.043,0.005-0.084-0.009-0.115-0.035l-0.052-0.043c-0.706-0.59-1.571-1.118-2.394-1.63c-0.843-0.521-1.663-1.013-2.539-1.421
						C427.378,240.536,425.519,239.882,423.649,239.181z"/>
				</g>
				<g>
					<path style="fill:#E5E5E5;" d="M425.55,228.459c1.095,0.669,2.037,1.457,2.981,2.241c0.937,0.8,1.834,1.591,2.787,2.441
						c-1.269-0.275-2.358-1.014-3.322-1.81C427.045,230.506,426.179,229.582,425.55,228.459z"/>
				</g>
				<g>
					<path style="fill:#E5E5E5;" d="M425.55,221.469c0.297-1.338,0.81-2.615,1.388-3.855c0.577-1.243,1.263-2.434,2.026-3.572
						c0.778-1.127,1.597-2.231,2.54-3.226c0.458-0.509,0.951-0.985,1.437-1.463c0.508-0.458,1.03-0.901,1.567-1.321
						c-0.839,1.082-1.714,2.107-2.515,3.192c-0.813,1.073-1.595,2.165-2.343,3.279c-0.765,1.104-1.453,2.256-2.152,3.407
						C426.813,219.069,426.166,220.251,425.55,221.469z"/>
				</g>
				<g>
					<path style="fill:#E5E5E5;" d="M433.082,194.12c-0.404,2.051-0.919,4.074-1.465,6.088c-0.545,2.014-1.181,4.002-1.8,5.995
						c-0.688,1.971-1.371,3.946-2.167,5.879c-0.81,1.923-1.66,3.858-2.847,5.587c0.435-0.953,0.847-1.901,1.196-2.882
						c0.374-0.968,0.721-1.947,1.057-2.93c0.668-1.967,1.354-3.929,1.978-5.913l1.979-5.921
						C431.683,198.051,432.35,196.077,433.082,194.12z"/>
				</g>
				<g>
					<path style="fill:#E5E5E5;" d="M398.744,187.401c1.361-0.612,2.735-1.169,4.106-1.73l4.117-1.66l4.125-1.63
						c1.379-0.539,2.743-1.109,4.143-1.63c-1.243,0.827-2.551,1.547-3.884,2.211c-1.331,0.67-2.698,1.264-4.079,1.818
						c-1.387,0.539-2.783,1.056-4.208,1.487C401.642,186.707,400.21,187.114,398.744,187.401z"/>
				</g>
				<g>
					<path style="fill:#E5E5E5;" d="M409.195,186.655c1.296-0.738,2.604-1.431,3.907-2.134l3.902-2.104l7.799-4.245
						c-2.26,1.95-4.793,3.555-7.408,4.973c-1.316,0.695-2.647,1.365-4.018,1.946C412.01,185.678,410.626,186.231,409.195,186.655z"
						/>
				</g>
				<g>
					<path style="fill:#E5E5E5;" d="M414.759,192.22c0.509-0.82,1.265-1.396,2.083-1.838c0.826-0.416,1.779-0.702,2.735-0.537
						c-0.827,0.481-1.576,0.859-2.356,1.271C416.439,191.511,415.666,191.915,414.759,192.22z"/>
				</g>
				<g>
					<path style="fill:#E5E5E5;" d="M360.061,200.838c1.318-1.219,2.864-2.138,4.488-2.878c1.628-0.703,3.41-1.254,5.216-1.126
						c-1.708,0.524-3.287,1.175-4.881,1.883C363.29,199.415,361.723,200.173,360.061,200.838z"/>
				</g>
				<g>
					<path style="fill:#E5E5E5;" d="M360.604,202.399c0.523-0.341,1.087-0.393,1.638-0.341c0.538,0.077,1.128,0.278,1.484,0.805
						c-0.61,0.081-1.073,0.072-1.584,0.016C361.639,202.806,361.141,202.709,360.604,202.399z"/>
				</g>
				<g>
					<path style="fill:#E5E5E5;" d="M358.772,173.15c-0.063,1.581-0.139,3.15-0.187,4.719c-0.035,1.569-0.081,3.133-0.074,4.698
						c-0.013,1.565,0.054,3.125,0.113,4.689c0.081,1.564,0.246,3.117,0.419,4.693c-0.51-1.5-0.838-3.061-1.053-4.634
						c-0.211-1.574-0.3-3.162-0.306-4.748c0.014-1.585,0.081-3.17,0.269-4.743C358.133,176.252,358.371,174.684,358.772,173.15z"/>
				</g>
				<g>
					<path style="fill:#E5E5E5;" d="M364.54,174.779c0.56-1.816,1.496-3.489,2.664-4.995c0.592-0.746,1.255-1.452,2.034-2.029
						c0.763-0.579,1.671-1.054,2.631-1.119c-0.874,0.381-1.557,0.989-2.212,1.611c-0.645,0.636-1.246,1.323-1.804,2.051
						C366.708,171.731,365.677,173.264,364.54,174.779z"/>
				</g>
				<g>
					<path style="fill:#E5E5E5;" d="M361.486,205.521c1.438,3.157,1.973,6.656,2.199,10.107c0.232,3.472-0.118,6.95-0.51,10.377
						c-0.461,3.427-1.019,6.837-1.696,10.223c-0.686,3.384-1.444,6.753-2.369,10.079c0.59-3.401,1.19-6.794,1.743-10.193
						c0.545-3.4,1.108-6.797,1.502-10.212c0.459-3.41,0.79-6.822,0.696-10.248c-0.03-1.711-0.158-3.423-0.409-5.118
						C362.41,208.837,362.062,207.147,361.486,205.521z"/>
				</g>
				<g>
					<path style="fill:#E5E5E5;" d="M378.042,161.205c0.474-0.67,1.062-1.117,1.685-1.513c0.637-0.375,1.305-0.695,2.129-0.815
						c-0.448,0.656-1.051,1.112-1.685,1.513C379.523,160.77,378.84,161.099,378.042,161.205z"/>
				</g>
				<g>
					<path style="fill:#E5E5E5;" d="M383.667,160.365c1.304-0.636,2.671-1.118,4.054-1.546c1.382-0.435,2.797-0.756,4.222-1.023
						c1.429-0.246,2.876-0.414,4.329-0.456c1.453-0.036,2.912,0.039,4.335,0.311c-1.448,0.072-2.871,0.158-4.289,0.324
						c-1.415,0.19-2.827,0.376-4.231,0.636c-1.406,0.243-2.804,0.538-4.208,0.822C386.478,159.728,385.08,160.052,383.667,160.365z"
						/>
				</g>
				<g>
					<path style="fill:#E5E5E5;" d="M314.097,173.15c1.446-1.551,3.279-2.702,5.227-3.542c0.978-0.416,2.003-0.732,3.048-0.93
						c1.041-0.223,2.121-0.244,3.169-0.166c-1.031,0.244-2.034,0.474-3.013,0.792c-0.977,0.317-1.944,0.651-2.883,1.065
						C317.751,171.161,315.935,172.12,314.097,173.15z"/>
				</g>
				<g>
					<path style="fill:#E5E5E5;" d="M310.8,173.15c0.997-1.353,2.296-2.439,3.728-3.314c0.729-0.417,1.484-0.803,2.301-1.045
						c0.808-0.251,1.671-0.375,2.506-0.28c-1.603,0.472-2.995,1.207-4.383,2.035C313.562,171.366,312.23,172.283,310.8,173.15z"/>
				</g>
				<g>
					<path style="fill:#E5E5E5;" d="M315.843,177.046c0.716-1.549,1.772-2.898,2.975-4.096c1.218-1.165,2.657-2.225,4.331-2.628
						c-1.377,0.992-2.574,2.069-3.755,3.221C318.211,174.686,317.083,175.884,315.843,177.046z"/>
				</g>
				<g>
					<path style="fill:#E5E5E5;" d="M304.638,163.741c0.09-1.938,0.883-3.849,2.166-5.371c1.258-1.567,3.168-2.52,5.016-3.086
						c1.873-0.572,3.83-0.922,5.798-0.873c1.933,0.069,4.009,0.398,5.531,1.657c-0.839-0.481-1.758-0.757-2.698-0.88
						c-0.934-0.149-1.883-0.19-2.826-0.141c-1.887,0.101-3.754,0.457-5.557,1.026c-1.815,0.544-3.498,1.36-4.794,2.723
						c-0.652,0.663-1.202,1.434-1.636,2.272C305.18,161.897,304.85,162.799,304.638,163.741z"/>
				</g>
			</g>
			<g>
				<g>
					<path style="fill:#101E39;" d="M377.012,130.991c0.451-0.271,0.957-0.437,1.493-0.535c0.53-0.075,1.15-0.048,1.672,0.319
						c0.537,0.357,0.784,1.003,0.846,1.554c0.059,0.289,0.044,0.566,0.029,0.842c0.001,0.281-0.045,0.547-0.091,0.812
						c-0.211,1.052-0.482,2.083-1.13,3.014c-0.307,0.447-0.811,0.905-1.447,0.914c-0.62-0.02-1.086-0.406-1.371-0.832
						c0.411,0.303,0.909,0.542,1.336,0.428c0.419-0.088,0.717-0.452,0.94-0.861c0.439-0.828,0.683-1.842,0.857-2.802
						c0.048-0.241,0.098-0.483,0.1-0.719c0.022-0.24,0.032-0.477,0.002-0.699c-0.014-0.463-0.168-0.871-0.466-1.142
						C379.15,130.734,377.999,130.79,377.012,130.991z"/>
				</g>
				<g>
					<path style="fill:#101E39;" d="M379.725,144.728c0.084-0.534,0.287-0.895,0.542-1.239c0.271-0.329,0.576-0.628,1.09-0.813
						c0.033,0.546-0.171,0.961-0.439,1.323C380.632,144.341,380.271,144.653,379.725,144.728z"/>
				</g>
			</g>
			<g>
				<path style="fill:#101E39;" d="M307.02,150.217c0,0,2.238-2.716,7.628-2.768c5.39-0.051,7.186,2.004,7.186,2.004l0.086-3.628
					c0,0-6.321-0.996-10.306,0.47c-2.745,1.01-4.326,2.627-4.326,2.627L307.02,150.217z"/>
			</g>
		</g>
	</g>
	<g>
		<g>
			<ellipse style="fill:#EBC9CF;" cx="103.538" cy="451.776" rx="90.387" ry="10.8"/>
		</g>
		<g>
			<g>
				<path style="fill:#E7816D;" d="M97.858,209.088c5.518,0.267,9.879,2.225,9.879,2.225c1.533,5.743,1.958,12.907,1.958,12.907
					s3.092-2.294,6.18-4.488c3.088-2.194,11.972-11.37,14.864-15.858c2.892-4.488,9.091-11.552,10.393-13.404
					c1.301-1.852,5.705-2.653,8.058-3.532c1.292-0.483,3.162-0.466,4.714-0.336c-0.274-4-0.686-6.814-1.291-7.522
					c-2.893-3.385-6.919-3.43-6.919-3.43s-5.226,0.307-8.224,0.077c-0.543-0.042-1.086-0.104-1.614-0.189
					c1.002,2.188,2.494,5.67,3.151,8.355c1.036,4.23,0.259,10.705-12.949,11.309c-10.932,0.5-17.31-11.004-19.184-14.984
					c-0.923,0.512-1.786,0.903-2.537,1.154c-3.956,1.319-7.187,0.264-10.088,1.385c-2.901,1.121-5.934,2.769-5.934,2.769
					c-3.799,3.624-2.625,11.391-3.026,16.048c-0.401,4.657-2.489,6.665-1.445,8.511c0.687,1.216,3.393,2.571,5.161,3.355
					c-0.643-1.994-1.024-3.238-1.024-3.238S92.34,208.821,97.858,209.088z"/>
			</g>
			<g>
				<path style="fill:#E7816D;" d="M152.409,216.103c0.685-4.108-0.452-11.678-0.452-11.678s0,0-1.62,0s-3.185,1.173-4.637,2.067
					c-1.453,0.894-2.844,0.994-4.879,2.229c-2.035,1.236-6.469,8.141-10.103,13.956c-3.634,5.815-8.742,13.554-16.306,21.207
					c-6.747,6.827-8.965,3.951-12.775-1.233c-0.594,2.703-1.233,5.615-1.773,8.098c-1.119,5.14-2.892,14.072-3.494,17.964
					c-0.167,1.081,0.581,2.076,1.651,2.236c0.03,0.005,0.058,0.015,0.089,0.019c1.976,0.202,5.624,0.572,9.613,0.661
					c9.748,0.219,13.734-0.954,25.847-2.957c9.413-1.556,19.826-4.034,23.631-5.062c0.036-0.01,0.067-0.027,0.101-0.039
					c0.874-0.296,1.364-1.232,1.082-2.124c-0.796-2.517-3.229-7.396-4.977-11.564c-2.48-5.913-3.403-10.502-3.403-10.502
					s-0.248-0.941-0.676-7.531S151.724,220.211,152.409,216.103z"/>
			</g>
			<g>
				<path style="fill:#33344E;" d="M160.667,269.689c-0.774-1.906-2.388-4.571-3.365-6.117c-0.035,0.012-0.066,0.029-0.101,0.039
					c-3.806,1.027-14.218,3.505-23.631,5.062c-12.113,2.003-16.099,3.175-25.847,2.957c-3.989-0.089-7.637-0.459-9.613-0.661
					c-0.031-0.003-0.059-0.014-0.089-0.019c-0.513,4.094-1.534,12.043-2.125,15.354c-0.813,4.553-3.252,14.473-6.342,23.091
					c-3.09,8.618-7.318,35.612-8.456,43.255c-1.138,7.643-1.301,10.733-1.138,16.099c0.163,5.366-1.301,14.798-0.813,24.555
					c0.488,9.757,3.251,25.048,3.251,25.048s2.099,1.234,7.345,1.234c5.247,0,6.358,0,6.358,0s3.2-14.957,4.233-18.431
					c1.033-3.474,2.254-14.93,1.033-21.315c-1.221-6.385-0.188-13.615,2.254-20.657c2.441-7.042,10.516-24.037,13.427-32.206
					s7.136-20.282,8.451-23.005s4.038-5.728,4.038-5.728s-1.596,8.357-1.596,14.178c0,5.822-1.408,18.873-3.568,29.014
					s-0.139,16.343-0.804,21.779c-0.666,5.435-3.106,19.856-3.106,30.061s-0.464,21.357-0.464,21.357s2.302,1.16,5.809,1.34
					c3.507,0.18,5.522-0.036,5.522-0.036s10.269-32.52,11.207-38.876c0.938-6.357,0.729-19.174,1.667-23.446
					c0.938-4.272,14.531-39.251,17.39-54.548S161.82,272.527,160.667,269.689z"/>
			</g>
			<g>
				<path style="fill:#FF916E;" d="M109.489,178.539c0.294-0.213,0.588-0.434,0.883-0.665
					C110.077,178.104,109.782,178.326,109.489,178.539z"/>
			</g>
			<g>
				<path style="fill:#FF916E;" d="M107.829,179.652c0.243-0.15,0.488-0.307,0.736-0.471
					C108.317,179.346,108.072,179.502,107.829,179.652z"/>
			</g>
			<g>
				<path style="fill:#FF916E;" d="M108.647,179.125c0.273-0.183,0.547-0.374,0.823-0.573
					C109.194,178.752,108.92,178.942,108.647,179.125z"/>
			</g>
			<g>
				<path style="fill:#FF916E;" d="M134.907,175.354c0.308,0.07,0.625,0.131,0.948,0.183
					C135.532,175.485,135.215,175.424,134.907,175.354z"/>
			</g>
			<g>
				<path style="fill:#FF916E;" d="M106.873,180.217c0.268-0.149,0.542-0.31,0.819-0.478
					C107.415,179.908,107.141,180.068,106.873,180.217z"/>
			</g>
			<g>
				<path style="fill:#FDB1A9;" d="M126.057,195.201c13.208-0.604,13.985-7.079,12.949-11.309c-0.658-2.685-2.149-6.167-3.151-8.355
					c-0.323-0.052-0.639-0.113-0.948-0.183c-1.969-0.445-3.568-1.265-3.894-2.625c-0.461-1.921,0.384-4.996,0.384-4.996
					s6.572-3.302,8.514-11.411c2.308-9.639,1.371-13.706,1.256-15.876c-0.114-2.17-1.013-4.859-1.013-4.859s-2.77-0.566-3.912-1.823
					c-1.142-1.256-2.411-3.627-2.411-3.627s-2.141,4.222-4.318,6.158c-2.177,1.935-5.322,2.322-7.645,4.064
					c-2.322,1.742-3.532,4.403-3.532,4.403s-3.677-1.355-4.887,2.661c-1.21,4.016,2.951,4.548,2.951,4.548s4.221,10.21,1.584,16.54
					c-1.535,3.684-4.566,6.983-7.612,9.361c-0.295,0.23-0.589,0.452-0.883,0.665c-0.006,0.005-0.013,0.009-0.019,0.014
					c-0.276,0.199-0.55,0.39-0.823,0.573c-0.027,0.018-0.055,0.038-0.083,0.056c-0.248,0.165-0.493,0.321-0.736,0.471
					c-0.045,0.028-0.091,0.058-0.136,0.086c-0.277,0.169-0.551,0.33-0.819,0.478C108.747,184.197,115.125,195.701,126.057,195.201z"
					/>
			</g>
			<g>
				<path style="fill:#33344E;" d="M104.336,181.37c0.751-0.25,1.614-0.642,2.537-1.154c1.109-0.615,2.305-1.41,3.499-2.343
					c3.046-2.378,6.077-5.677,7.612-9.361c2.637-6.33-1.584-16.54-1.584-16.54s-4.161-0.532-2.951-4.548
					c1.21-4.016,4.887-2.661,4.887-2.661s1.21-2.661,3.532-4.403c2.322-1.742,5.467-2.129,7.645-4.064
					c2.177-1.935,4.318-6.158,4.318-6.158s1.269,2.37,2.411,3.627c1.142,1.256,3.912,1.823,3.912,1.823s0.898,2.689,1.013,4.859
					c0.114,2.17,1.052,6.236-1.256,15.876c-1.942,8.109-8.514,11.411-8.514,11.411s-0.845,3.074-0.384,4.996
					c0.326,1.36,1.925,2.18,3.894,2.625c0.308,0.07,0.625,0.131,0.948,0.183c0.528,0.085,1.071,0.148,1.614,0.189
					c2.997,0.231,8.224-0.077,8.224-0.077s1.921-0.615,3.766-7.455s-1.307-9.607-4.611-16.601
					c-3.305-6.994,0.077-18.906-2.767-23.441c-2.844-4.534-8.608-4.458-11.682-4.765c-3.074-0.307-9.607-3.074-18.061,1.614
					c-8.454,4.688-9.471,15.91-13.782,22.856c-4.311,6.946-11.737,3.353-15.808,17.126c-4.072,13.772,5.567,20.54,5.567,20.54
					s3.033-1.648,5.934-2.769C97.149,181.634,100.38,182.689,104.336,181.37z"/>
			</g>
			<g>
				<path style="fill:#33344E;" d="M96.787,437.982c-0.249-2.49-0.548-6.324-1.195-6.971c-0.295-0.295-0.755-0.517-1.169-0.672
					c0.052,2.24,0.443,3.073,0.443,3.073s-0.432,2.963-2.284,3.086c-1.852,0.123-2.654-0.926-3.333-1.728
					c-0.679-0.802-0.679-0.802-0.679-0.802s0.926-3.148-0.802-4.444c-1.728-1.296-5.123-1.605-5.123-1.605s0-0.026,0-0.072
					c-0.806,0.501-2.047,1.496-2.849,3.208c-1.27,2.709-3.048,3.302-5.249,5.841c-2.201,2.54-5.08,6.942-5.08,6.942
					s-7.684,5.098-8.481,7.04c-0.797,1.942-1.195,5.428,0.548,6.125c1.743,0.697,7.32,2.639,14.639,0.598
					c7.32-2.042,7.121-5.129,13.693-7.619c6.573-2.49,7.519-3.087,7.519-4.481C97.385,444.106,97.036,440.471,96.787,437.982z"/>
			</g>
			<g>
				<path style="fill:none;" d="M117.658,428.437l0.181-0.376C117.714,428.292,117.658,428.437,117.658,428.437z"/>
			</g>
			<g>
				<path style="fill:#33344E;" d="M137.968,446.728c-0.761-1.347-4.628-6.736-5.916-9.606c-1.289-2.87-3.018-9.494-3.018-9.494
					s-0.54-1.124-1.349-2.158c-0.809-1.034-3.777-1.259-6.475-0.27c-2.015,0.739-3.001,2.179-3.371,2.861l-0.181,0.376
					c0,0-1.714,2.359-1.89,5.522c-0.176,3.163-0.879,14.117,0,15.23c0.879,1.113,6.561,6.736,12.711,6.795
					c6.15,0.059,9.899-1.523,10.309-2.636C139.199,452.234,138.73,448.075,137.968,446.728z"/>
			</g>
			<g>
				<path style="fill:#FDB1A9;" d="M125.806,415.972c-3.507-0.18-5.809-1.34-5.809-1.34s-0.09,4.227-0.719,6.565
					c-0.629,2.338-1.169,3.732-1.394,5.486c-0.225,1.754-0.225,1.754-0.225,1.754s0.055-0.145,0.181-0.376
					c0.371-0.682,1.356-2.122,3.371-2.861c2.698-0.989,5.666-0.764,6.475,0.27c0.809,1.034,1.349,2.158,1.349,2.158
					s0.18-3.732,0.45-5.531c0.27-1.799,1.844-6.16,1.844-6.16S129.313,416.152,125.806,415.972z"/>
			</g>
			<g>
				<g>
					<path style="fill:#E5E5E5;" d="M82.397,367.674c0.801-0.034,1.481,0.01,2.174,0.007c0.696,0.023,1.351-0.025,2.16-0.007
						c-0.555,0.593-1.384,0.845-2.17,0.834C83.775,368.488,82.973,368.254,82.397,367.674z"/>
				</g>
				<g>
					<path style="fill:#E5E5E5;" d="M92.454,355.683c0.431,0.75,0.566,1.566,0.593,2.38c-0.001,0.81-0.119,1.66-0.593,2.389
						c-0.173-0.84-0.214-1.593-0.234-2.377C92.22,357.293,92.24,356.515,92.454,355.683z"/>
				</g>
				<g>
					<path style="fill:#E5E5E5;" d="M130.88,360.452c0.679-0.225,1.301-0.241,1.922-0.237c0.628,0.023,1.201,0.088,1.893,0.237
						c-0.544,0.493-1.267,0.595-1.916,0.59C132.121,361.01,131.466,360.871,130.88,360.452z"/>
				</g>
				<g>
					<path style="fill:#E5E5E5;" d="M140.01,349.279c0.473,0.901,0.654,1.873,0.703,2.854c0.012,0.491-0.007,0.989-0.111,1.481
						c-0.093,0.488-0.27,0.988-0.592,1.388c0.017-0.505-0.037-0.97-0.052-1.437l-0.071-1.402
						C139.865,351.221,139.839,350.277,140.01,349.279z"/>
				</g>
				<g>
					<path style="fill:#E5E5E5;" d="M121.367,412.738c1.552,0.23,3.039,0.435,4.549,0.576c1.508,0.155,3.01,0.208,4.579,0.35
						c-0.747,0.243-1.521,0.42-2.304,0.477c-0.783,0.085-1.572,0.058-2.355-0.004C124.279,413.968,122.709,413.586,121.367,412.738z
						"/>
				</g>
				<g>
					<path style="fill:#E5E5E5;" d="M83.268,416.178c2.071,0.026,4.096,0.177,6.126,0.291c2.031,0.13,4.042,0.213,6.111,0.304
						c-2.003,0.561-4.104,0.631-6.16,0.521C87.287,417.152,85.234,416.846,83.268,416.178z"/>
				</g>
				<g>
					<path style="fill:#E5E5E5;" d="M129.211,270.713c0.555,1.658,0.873,3.392,1.01,5.148c0.085,1.758,0.188,3.445,0.38,5.174
						c0.168,1.72,0.381,3.439,0.591,5.157c0.103,0.861,0.228,1.713,0.37,2.571c0.112,0.865,0.251,1.723,0.339,2.593
						c-0.517-1.666-0.991-3.342-1.337-5.06c-0.36-1.711-0.597-3.441-0.786-5.178c-0.173-1.728-0.258-3.515-0.19-5.234
						C129.584,274.168,129.432,272.442,129.211,270.713z"/>
				</g>
				<g>
					<path style="fill:#E5E5E5;" d="M132.77,293.65c0.502-0.857,0.815-1.797,1.025-2.751c0.226-0.95,0.364-1.919,0.414-2.893
						c0.11-1.957-0.059-3.881-0.303-5.856c-0.205-1.978-0.354-3.963-0.387-5.952c-0.04-1.988-0.026-3.979,0.172-5.96
						c0.146,1.982,0.29,3.955,0.463,5.925c0.183,1.969,0.352,3.936,0.574,5.898c0.222,1.957,0.38,4.006,0.111,6.003
						C134.569,290.043,134.044,292.088,132.77,293.65z"/>
				</g>
				<g>
					<path style="fill:#E5E5E5;" d="M140.758,286.532c1.169-1.404,2.674-2.481,4.291-3.323c0.816-0.411,1.675-0.743,2.561-0.978
						c0.885-0.24,1.812-0.329,2.718-0.287c-1.735,0.544-3.336,1.199-4.906,2.003C143.851,284.738,142.337,285.634,140.758,286.532z"
						/>
				</g>
				<g>
					<path style="fill:#E5E5E5;" d="M138.465,291.357c1.192-1.064,2.528-1.952,3.902-2.763c1.372-0.82,2.817-1.516,4.296-2.124
						c1.484-0.596,2.999-1.123,4.559-1.483c1.548-0.396,3.135-0.636,4.723-0.749c-1.531,0.452-3.057,0.843-4.547,1.361
						c-1.493,0.497-2.971,1.034-4.422,1.636c-1.461,0.578-2.887,1.241-4.31,1.917C141.247,289.838,139.851,290.573,138.465,291.357z
						"/>
				</g>
				<g>
					<path style="fill:#E5E5E5;" d="M135.934,294.362c1.077-0.681,2.216-1.243,3.369-1.771c1.152-0.533,2.339-0.986,3.541-1.395
						c1.21-0.387,2.431-0.75,3.686-0.981c1.252-0.234,2.524-0.405,3.799-0.362c-1.238,0.299-2.445,0.622-3.646,0.98
						c-1.197,0.371-2.39,0.749-3.578,1.147l-3.57,1.2C138.342,293.582,137.151,293.992,135.934,294.362z"/>
				</g>
				<g>
					<path style="fill:#E5E5E5;" d="M117.425,293.018c1.477-0.019,2.907,0.293,4.293,0.73c1.373,0.463,2.73,1.075,3.854,2.038
						c-1.422-0.378-2.754-0.817-4.112-1.253C120.11,294.081,118.762,293.634,117.425,293.018z"/>
				</g>
				<g>
					<path style="fill:#E5E5E5;" d="M109.911,288.984c1.497-0.078,2.995,0.078,4.474,0.315c1.482,0.232,2.942,0.596,4.37,1.053
						c1.423,0.474,2.831,1.005,4.164,1.693c0.674,0.327,1.325,0.7,1.975,1.069c0.638,0.392,1.258,0.812,1.864,1.247
						c-1.38-0.582-2.716-1.211-4.097-1.735c-1.372-0.542-2.757-1.04-4.159-1.488c-1.395-0.469-2.819-0.845-4.245-1.22
						C112.826,289.558,111.381,289.246,109.911,288.984z"/>
				</g>
				<g>
					<path style="fill:#E5E5E5;" d="M97.731,283.843c0.811-0.229,1.614-0.462,2.398-0.753c0.792-0.26,1.573-0.551,2.333-0.884
						c1.523-0.657,3.009-1.384,4.391-2.276c1.378-0.897,2.628-1.959,3.739-3.166c0.514-0.636,1.047-1.268,1.433-2.001
						c0.504-0.673,0.73-1.479,1.129-2.231c-0.341,1.648-1.031,3.253-2.068,4.632c-1.047,1.366-2.359,2.511-3.785,3.459
						c-1.45,0.912-3.003,1.645-4.617,2.175C101.074,283.327,99.417,283.727,97.731,283.843z"/>
				</g>
				<g>
					<path style="fill:#E5E5E5;" d="M98.443,281.549c1.197-0.37,2.342-0.831,3.461-1.33c1.113-0.512,2.19-1.089,3.208-1.753
						c1.033-0.642,1.994-1.392,2.894-2.214c0.922-0.806,1.717-1.739,2.538-2.692c-0.546,1.12-1.199,2.23-2.081,3.147
						c-0.4,0.498-0.903,0.892-1.363,1.332c-0.504,0.388-1.001,0.787-1.542,1.122C103.418,280.523,100.957,281.424,98.443,281.549z"
						/>
				</g>
				<g>
					<path style="fill:#E5E5E5;" d="M147.205,267.47c0.875,0.941,1.862,1.735,2.911,2.416c1.057,0.668,2.161,1.249,3.324,1.695
						c1.168,0.429,2.367,0.786,3.604,1.014c1.234,0.256,2.496,0.352,3.78,0.491c-0.635,0.093-1.279,0.159-1.925,0.206
						c-0.644-0.023-1.299,0.019-1.944-0.067c-1.304-0.086-2.578-0.437-3.812-0.873c-1.217-0.488-2.381-1.126-3.398-1.953
						C148.728,269.581,147.808,268.619,147.205,267.47z"/>
				</g>
				<g>
					<path style="fill:#E5E5E5;" d="M144.871,267.47c0.934,1.303,2.053,2.434,3.284,3.405c1.239,0.957,2.567,1.794,3.999,2.416
						c0.723,0.286,1.435,0.619,2.196,0.809c0.375,0.109,0.747,0.235,1.127,0.332c0.385,0.074,0.768,0.158,1.152,0.246
						c1.544,0.329,3.125,0.423,4.731,0.543c-0.794,0.096-1.598,0.174-2.405,0.216c-0.803-0.046-1.622,0.004-2.424-0.131
						c-1.625-0.142-3.201-0.641-4.712-1.26c-1.493-0.671-2.886-1.576-4.076-2.691c-0.6-0.552-1.139-1.166-1.644-1.799
						C145.634,268.891,145.176,268.217,144.871,267.47z"/>
				</g>
			</g>
			<g>
				<g>
					<path style="fill:#DA6967;" d="M97.731,266.165c2.435,0.324,4.881,0.479,7.328,0.513c2.444,0.084,4.891,0.027,7.331-0.095
						c4.88-0.254,9.739-0.783,14.564-1.542c2.406-0.42,4.82-0.803,7.202-1.351c1.193-0.261,2.401-0.465,3.584-0.773l3.564-0.871
						c1.196-0.265,2.373-0.599,3.549-0.94l3.536-1.001c2.355-0.679,4.673-1.479,7.038-2.161c-2.266,0.946-4.549,1.862-6.848,2.74
						l-3.499,1.174c-1.165,0.397-2.334,0.788-3.522,1.11c-4.717,1.428-9.544,2.476-14.407,3.3
						c-4.876,0.736-9.798,1.239-14.733,1.267C107.492,267.549,102.527,267.297,97.731,266.165z"/>
				</g>
				<g>
					<g>
						<path style="fill:#DA6967;" d="M84.774,207.98c1.418-0.947,3.051-1.539,4.707-1.95c1.662-0.412,3.376-0.604,5.09-0.625
							c1.711,0.035,3.429,0.148,5.091,0.554c1.67,0.348,3.283,0.926,4.809,1.659c-0.85-0.094-1.666-0.274-2.494-0.387
							c-0.831-0.096-1.644-0.257-2.471-0.316c-0.412-0.037-0.823-0.078-1.231-0.13l-1.234-0.069
							c-0.819-0.076-1.643-0.057-2.463-0.07c-1.642-0.004-3.28,0.127-4.915,0.332C88.027,207.201,86.399,207.505,84.774,207.98z"/>
					</g>
					<g>
						<path style="fill:#DA6967;" d="M104.47,182.231c0.667,1.446,1.411,2.844,2.287,4.155c0.848,1.326,1.796,2.58,2.836,3.74
							c2.074,2.312,4.545,4.29,7.383,5.452c1.396,0.625,2.903,1.005,4.427,1.263c1.522,0.3,3.087,0.354,4.649,0.405
							c3.13,0.012,6.289-0.292,9.409-0.921c-2.994,1.095-6.17,1.738-9.391,1.889c-3.209,0.133-6.531-0.196-9.575-1.494
							c-3.045-1.276-5.637-3.439-7.639-5.974C106.831,188.217,105.345,185.295,104.47,182.231z"/>
					</g>
					<g>
						<path style="fill:#DA6967;" d="M139.474,176.802c0.743,0.669,1.327,1.48,1.821,2.333c0.501,0.854,0.878,1.775,1.178,2.723
							c0.287,0.951,0.458,1.944,0.49,2.941c0.047,0.995-0.099,2.005-0.417,2.943c-0.198-0.983-0.325-1.909-0.544-2.825
							c-0.22-0.91-0.427-1.815-0.717-2.703C140.759,180.421,140.098,178.679,139.474,176.802z"/>
					</g>
					<g>
						<path style="fill:#DA6967;" d="M99.368,188.144c0,0,5.132,7.743,6.753,14.405c1.621,6.663,1.616,8.764,1.616,8.764
							s1.08,4.452,1.437,7.67c0.358,3.218,0.52,5.237,0.52,5.237s1.373-7.471-1.568-18.835
							C105.185,194.02,99.368,188.144,99.368,188.144z"/>
					</g>
					<g>
						<path style="fill:#DA6967;" d="M145.7,206.493c-1.453,0.894-2.844,0.994-4.879,2.229c-2.035,1.236-6.469,8.141-10.103,13.956
							c-3.634,5.815-8.742,13.554-16.306,21.207c-6.747,6.827-8.965,3.951-12.775-1.233l0,0l-0.945,4.314c0,0,4,5.386,9.143,4.901
							c7.486-0.706,19.536-24.893,23.015-30.161c7.654-11.589,19.108-17.281,19.108-17.281s0,0-1.62,0
							S147.153,205.599,145.7,206.493z"/>
					</g>
				</g>
			</g>
			<g>
				<path style="fill:#FDB1A9;" d="M165.258,198.494c0-1.049,0.587-0.797,0.587-1.72c0-0.923-1.384-1.174-1.51-1.971
					c-0.126-0.797,0.377-1.049,0.168-2.097c-0.21-1.049-1.971-1.803-1.971-1.803s2.558-0.965,2.097-2.768
					c-0.35-1.369-1.666-1.288-2.628-1.078c-0.306,0.067-0.577,0.146-0.769,0.197c-0.797,0.21-3.313,1.049-3.313,1.049
					s-0.587-1.261-1.342-1.364c-0.34-0.047-1.4-0.229-2.674-0.336c-1.105-0.093-2.37-0.124-3.474,0.038
					c-0.446,0.065-0.868,0.159-1.239,0.298c-2.352,0.88-6.757,1.681-8.058,3.532c-1.301,1.852-7.5,8.916-10.393,13.404
					c-2.892,4.488-11.777,13.664-14.864,15.858c-3.088,2.194-6.18,4.488-6.18,4.488s-0.425-7.164-1.958-12.907
					c0,0-4.361-1.958-9.879-2.225c-5.518-0.267-9.879,1.112-9.879,1.112s0.381,1.244,1.024,3.238
					c2.194,6.802,7.453,22.357,11.169,27.243c0.519,0.683,1.003,1.343,1.465,1.971c0,0,0,0,0,0c3.81,5.184,6.028,8.059,12.775,1.233
					c7.565-7.654,12.672-15.393,16.306-21.207c3.634-5.815,8.068-12.72,10.103-13.956c2.035-1.236,3.426-1.335,4.879-2.229
					c1.453-0.894,3.017-2.067,4.637-2.067s1.62,0,1.62,0s1.136,7.57,0.452,11.678c-0.685,4.108-3.509,9.157-3.081,15.747
					s0.676,7.531,0.676,7.531s2.233,3.252,4.202,3.167c1.968-0.086,6.504-2.995,7.36-10.783c0.856-7.788-1.113-15.49-1.113-19.085
					c0-3.594-0.355-6.392,1.826-8.255c2.181-1.863,3.775-2.45,3.775-3.625S165.258,199.543,165.258,198.494z"/>
			</g>
			<g>
				<g>
					<path style="fill:#33344E;" d="M125.311,146.132c0.774,0.282,1.414,0.555,2.093,0.765c0.672,0.234,1.341,0.367,2.141,0.598
						c-0.718,0.425-1.617,0.444-2.399,0.188C126.369,147.421,125.649,146.904,125.311,146.132z"/>
				</g>
				<g>
					<path style="fill:#33344E;" d="M134.068,153.623c0.469-0.115,0.767-0.114,1.058-0.11c0.294,0.016,0.519,0.053,1.009,0.11
						c-0.053,0.23-0.196,0.444-0.397,0.551c-0.195,0.123-0.428,0.171-0.648,0.165C134.653,154.307,134.237,154.088,134.068,153.623z
						"/>
				</g>
				<g>
					<path style="fill:#33344E;" d="M137.56,148.202c0.468-0.287,0.812-0.439,1.187-0.588c0.379-0.135,0.738-0.269,1.294-0.33
						c-0.114,0.55-0.531,0.915-1,1.103C138.569,148.554,137.997,148.571,137.56,148.202z"/>
				</g>
				<g>
					<path style="fill:#33344E;" d="M137.055,143.699c0.09-0.384,0.323-0.659,0.582-0.866c0.261-0.215,0.57-0.346,0.888-0.427
						c0.639-0.127,1.351-0.041,1.884,0.513c-0.32,0.231-0.591,0.351-0.853,0.459c-0.26,0.107-0.509,0.176-0.759,0.238
						C138.282,143.719,137.802,143.772,137.055,143.699z"/>
				</g>
				<g>
					<path style="fill:#33344E;" d="M125.89,141.081c0.456-0.321,0.974-0.468,1.494-0.533c0.524-0.071,1.056-0.023,1.579,0.091
						c1.023,0.253,2.057,0.94,2.395,2.005c-0.538-0.161-0.961-0.328-1.402-0.455c-0.44-0.116-0.853-0.254-1.291-0.346
						C127.794,141.615,126.913,141.447,125.89,141.081z"/>
				</g>
				<g>
					<path style="fill:#33344E;" d="M129.106,157.345c0.713,0.55,1.369,0.945,2.077,1.307c0.709,0.358,1.45,0.634,2.27,1.036
						c-0.438,0.114-0.896,0.158-1.342,0.092c-0.451-0.047-0.886-0.197-1.301-0.39C130.013,158.97,129.273,158.267,129.106,157.345z"
						/>
				</g>
				<path style="fill:#33344E;" d="M118.033,146.978c-0.31-0.594-0.932-1.139-1.653-1.074c0.224,0.26,0.37,0.515,0.523,0.743
					c0.047,0.079,0.086,0.157,0.13,0.235c-0.378,0.088-0.698,0.301-0.961,0.57c-0.335,0.375-0.611,0.915-0.428,1.484
					c0.213-0.185,0.409-0.318,0.567-0.471c0.169-0.144,0.316-0.297,0.467-0.45c0.199-0.223,0.395-0.452,0.571-0.745
					c0.015,0.029,0.033,0.056,0.048,0.086c0.253,0.481,0.458,0.993,0.828,1.58c0.133-0.317,0.198-0.654,0.171-0.986
					C118.276,147.617,118.186,147.286,118.033,146.978z"/>
				<g>
					<path style="fill:#33344E;" d="M131.397,167.734c0,0-2.66,0.388-5.282-0.768c-2.622-1.156-5.61-3.505-5.61-3.505
						s2.384,3.68,5.301,5.023c2.969,1.367,5.172,1.416,5.172,1.416C131.072,169.263,131.397,167.734,131.397,167.734z"/>
				</g>
			</g>
			<g>
				<path style="fill:#33344E;" d="M109.694,224.22c0,0-3.418,2.038-5.003,4.301s-1.585,2.263-1.585,2.263s0.812-4.969,3.294-7.051
					c2.996-2.513,3.041-2.459,3.041-2.459L109.694,224.22z"/>
			</g>
			<g>
				<path style="fill:#33344E;" d="M87.98,210.2c0,0,4.408-1.41,9.368-1.132c6.505,0.365,10.389,2.244,10.389,2.244
					s-4.51,1.087-11.127,1.884c-6.617,0.797-7.432,0.782-7.432,0.782L87.98,210.2z"/>
			</g>
			<g>
				<path style="fill:#33344E;" d="M152.182,217.212c0,0-3.049,8.457-3.027,12.618s0.85,9.552,0.85,9.552s0.344-8.865,1.383-13.353
					c1.039-4.488,1.039-4.488,1.039-4.488L152.182,217.212z"/>
			</g>
			<g>
				<path style="fill:#FDB1A9;" d="M82.397,418.351c0.232,2.612,0.246,8.77,0.247,9.496c0,0.046,0,0.072,0,0.072
					s3.395,0.309,5.123,1.605c1.728,1.296,0.802,4.444,0.802,4.444s0,0,0.679,0.802c0.679,0.802,1.481,1.852,3.333,1.728
					c1.852-0.123,2.284-3.086,2.284-3.086s-0.391-0.833-0.443-3.073c-0.01-0.427-0.009-0.899,0.011-1.433
					c0.123-3.333,1.667-9.32,1.667-9.32s-1.111,0-6.358,0C84.496,419.585,82.397,418.351,82.397,418.351z"/>
			</g>
			<g>
				<g>
					<path style="fill:#33344E;" d="M151.268,187.742c0.171,0.185,0.182,0.351,0.207,0.52c-0.024,0.17-0.035,0.336-0.207,0.526
						c-0.172-0.158-0.183-0.341-0.207-0.52C151.085,188.089,151.097,187.906,151.268,187.742z"/>
				</g>
				<g>
					<path style="fill:#33344E;" d="M162,187.057c0.646-1.469,1.919-4.258,2.737-6.043c0.353-0.77-0.21-1.646-1.057-1.646h-8.703
						c-0.969,0-1.84,0.586-2.204,1.484c-0.716,1.767-1.875,4.625-2.345,5.789c1.105-0.162,2.369-0.131,3.474-0.038
						c1.274,0.107,2.333,0.289,2.674,0.336c0.755,0.104,1.342,1.364,1.342,1.364s2.516-0.839,3.313-1.049
						C161.423,187.203,161.694,187.124,162,187.057z"/>
					<path style="fill:#33344E;" d="M157.114,190.226c-0.839,0.103-1.723,0.031-2.595-0.029c-0.445-0.017-0.865-0.062-1.334-0.06
						c-0.468,0.01-0.925,0.116-1.342,0.296c-0.813,0.342-1.526,0.863-2.116,1.489c-0.671-0.01-1.342-0.022-2.013-0.047
						c1.621,0.135,3.245,0.258,4.873,0.308c1.306,0.035,2.615,0.06,3.926,0.002c-1.191,0.531-2.383,1.058-3.564,1.615l-1.097,0.543
						c-0.362,0.139-0.821,0.546-0.865,1.013c-0.092,0.457,0.013,0.906,0.2,1.303c0.197,0.386,0.505,0.765,0.97,0.907
						c0.393,0.103,0.735,0.05,1.073-0.006c-0.237,0.128-0.46,0.285-0.641,0.507c-0.444,0.569-0.355,1.339-0.22,1.957
						c0.023,0.146,0.074,0.29,0.135,0.431c-0.319-0.164-0.65-0.256-0.98-0.354c-0.435-0.079-0.865-0.17-1.341-0.108
						c0.388,0.268,0.821,0.383,1.25,0.511c0.382,0.07,0.764,0.143,1.161,0.119c0.238,0.426,0.63,0.782,1.12,0.894
						c0.2,0.055,0.4,0.069,0.599,0.065c-0.088,0.293-0.168,0.586-0.25,0.873c-0.106,0.321-0.175,0.753-0.331,0.965
						c-0.145,0.26-0.461,0.433-0.767,0.592c-0.315,0.156-0.656,0.282-1.007,0.414c0.376,0.037,0.753-0.012,1.122-0.118
						c0.363-0.114,0.737-0.299,0.998-0.661c0.125-0.199,0.162-0.405,0.202-0.577c0.038-0.184,0.085-0.366,0.095-0.554
						c0.031-0.312,0.035-0.625,0.004-0.938c0.169-0.007,0.336-0.026,0.501-0.057c0.124,0.6,0.334,1.188,0.717,1.709
						c0.19,0.289,0.572,0.537,0.937,0.572c0.352,0.056,0.694,0.069,1.034,0.069c1.357-0.054,2.692-0.221,3.997-0.569
						c-1.348,0.009-2.68,0.152-4.002,0.156c-0.329,0.011-0.66,0.01-0.97-0.028c-0.313-0.021-0.524-0.174-0.754-0.406
						c-0.383-0.422-0.659-0.964-0.913-1.513c0.274-0.055,0.54-0.125,0.787-0.185l3.725-1.006c1.239-0.346,2.471-0.72,3.7-1.113
						c-1.266,0.247-2.527,0.513-3.782,0.807l-3.757,0.914c-0.631,0.166-1.213,0.37-1.793,0.223
						c-0.576-0.124-0.976-0.615-1.127-1.204c-0.167-0.597-0.273-1.255,0.076-1.765c0.188-0.294,0.475-0.509,0.794-0.683
						c0.369-0.073,0.734-0.16,1.095-0.255c0.789-0.21,1.567-0.451,2.341-0.703c1.547-0.505,3.067-1.085,4.58-1.676
						c-1.539,0.52-3.094,0.992-4.649,1.453c-0.778,0.228-1.559,0.446-2.346,0.631c-0.393,0.092-0.788,0.177-1.182,0.24
						c-0.385,0.049-0.812,0.132-1.125,0.034c-0.645-0.227-1.037-1.112-0.9-1.791c0.071-0.368,0.288-0.568,0.669-0.737l1.093-0.525
						l4.363-2.033c0.146,0.039,0.299,0.06,0.456,0.06c0.294,0,0.565-0.047,0.84-0.088c1.073-0.245,2.111-0.576,3.085-1.081
						c-1.079,0.177-2.116,0.484-3.164,0.675c-0.528,0.117-1.024,0.195-1.471-0.017c-0.399-0.161-0.642-0.585-0.712-1.06
						c0.216-0.017,0.433-0.044,0.65-0.085c0.224-0.053,0.455-0.119,0.664-0.272c0.225-0.165,0.295-0.429,0.337-0.651
						c0.052-0.469-0.06-0.92-0.254-1.316C158.152,189.108,158.095,190.262,157.114,190.226z M156.468,190.672
						c-0.002-0.025-0.002-0.029-0.003-0.041c0.003,0,0.005,0,0.008,0C156.471,190.645,156.469,190.658,156.468,190.672z"/>
				</g>
			</g>
		</g>
	</g>
</g>
</svg>
